<?xml version="1.0" standalone="no"?>
<!DOCTYPE svg PUBLIC "-//W3C//DTD SVG 20010904//EN"
 "http://www.w3.org/TR/2001/REC-SVG-20010904/DTD/svg10.dtd">
<svg version="1.0" xmlns="http://www.w3.org/2000/svg"
 width="405.000000pt" height="383.000000pt" viewBox="0 0 405.000000 383.000000"
 preserveAspectRatio="xMidYMid meet">
<metadata>
Created by potrace 1.16, written by Peter Selinger 2001-2019
</metadata>
<g transform="translate(0.000000,383.000000) scale(0.100000,-0.100000)"
fill="#000000" stroke="none">
<path d="M473 3768 c-17 -18 -39 -49 -49 -68 -18 -33 -19 -81 -22 -1010 -2
-871 -1 -980 13 -1024 23 -69 58 -111 118 -141 l51 -25 1435 0 c995 0 1448 3
1475 11 51 14 128 91 144 145 9 31 12 277 12 1020 0 926 -1 981 -19 1019 -10
22 -30 55 -45 73 l-28 32 -1527 0 -1527 0 -31 -32z m2845 -1100 l-3 -863
-1287 -3 -1288 -2 0 865 0 865 1290 0 1290 0 -2 -862z"/>
<path d="M527 1429 c-74 -17 -114 -45 -131 -91 -15 -41 -72 -212 -246 -743
-45 -137 -88 -264 -96 -282 -18 -41 -18 -77 2 -119 19 -39 99 -114 122 -114
29 0 -2 -18 -38 -23 -19 -2 840 -4 1910 -4 1070 0 1925 2 1900 4 -25 2 -56 6
-69 9 -22 5 -21 7 18 26 23 11 53 35 66 53 22 28 25 42 25 112 0 76 -7 101
-130 474 -72 217 -146 446 -167 509 -20 63 -43 124 -52 134 -9 10 -36 28 -61
40 l-45 21 -1485 2 c-848 1 -1501 -3 -1523 -8z m278 -356 c-8 -27 -15 -49 -15
-50 0 -2 -36 -3 -80 -3 -87 0 -87 0 -69 63 l10 37 84 0 84 0 -14 -47z m241 5
c-4 -22 -9 -45 -12 -50 -3 -4 -48 -8 -100 -8 -104 0 -106 2 -83 69 l11 31 95
0 96 0 -7 -42z m244 30 c0 -7 -3 -30 -6 -50 l-7 -38 -100 0 -100 0 7 42 c4 22
9 45 12 50 9 14 194 10 194 -4z m240 -7 c0 -10 -3 -33 -6 -50 l-6 -31 -101 0
-100 0 7 42 c4 22 9 45 12 50 3 4 48 8 100 8 85 0 94 -2 94 -19z m240 -8 c0
-71 -3 -73 -106 -73 -51 0 -95 4 -98 8 -2 4 -2 27 1 50 l6 42 98 0 99 0 0 -27z
m238 -20 l-3 -48 -94 -3 c-52 -1 -97 1 -101 5 -4 4 -5 27 -2 51 l4 42 100 0
99 0 -3 -47z m236 31 c3 -9 6 -31 6 -50 l0 -34 -100 0 -100 0 0 50 0 50 94 0
c76 0 95 -3 100 -16z m240 -6 c3 -13 6 -35 6 -50 l0 -28 -100 0 -100 0 0 50 0
50 94 0 c89 0 94 -1 100 -22z m244 -20 c5 -24 7 -46 5 -50 -2 -5 -47 -8 -99
-8 -102 0 -98 -2 -109 63 l-6 37 100 0 100 0 9 -42z m239 0 c6 -23 9 -46 7
-50 -3 -5 -47 -8 -99 -8 -102 0 -96 -4 -110 68 l-7 32 99 0 99 0 11 -42z m237
15 c3 -16 8 -38 12 -50 6 -23 5 -23 -94 -23 l-100 0 -11 44 c-6 25 -11 47 -11
50 0 3 44 6 99 6 l99 0 6 -27z m206 2 c5 -14 13 -37 16 -50 l6 -25 -85 0 c-84
0 -85 0 -91 28 -3 15 -8 37 -12 50 -6 22 -5 22 75 22 78 0 82 -1 91 -25z
m-2636 -123 c3 -5 0 -25 -6 -45 l-11 -37 -84 0 c-91 0 -96 4 -73 64 9 25 13
26 89 26 44 0 82 -4 85 -8z m246 -14 c-1 -67 -3 -68 -116 -68 -57 0 -104 3
-104 6 0 4 5 24 12 45 l11 39 99 0 c95 0 98 -1 98 -22z m250 8 c0 -7 -3 -28
-6 -45 l-6 -31 -105 0 -104 0 7 38 c4 20 9 40 11 45 2 4 49 7 104 7 77 0 99
-3 99 -14z m240 -31 l0 -45 -106 0 -106 0 6 31 c3 17 6 38 6 45 0 11 22 14
100 14 l100 0 0 -45z m250 0 l0 -45 -105 0 -105 0 0 38 c0 21 3 42 7 45 3 4
51 7 105 7 l98 0 0 -45z m245 0 l0 -40 -102 -3 -103 -3 0 39 c0 21 3 42 7 46
4 4 50 5 103 4 l95 -3 0 -40z m249 29 c3 -9 6 -29 6 -45 l0 -29 -105 0 -105 0
0 45 0 45 99 0 c81 0 100 -3 105 -16z m239 9 c2 -5 7 -25 11 -45 l7 -38 -104
0 -105 0 -5 38 c-2 20 -2 40 0 45 2 4 46 7 98 7 52 0 96 -3 98 -7z m255 -40
l3 -43 -99 0 c-108 0 -111 2 -112 68 0 22 2 23 103 20 l102 -3 3 -42z m246 25
c3 -13 6 -33 6 -46 0 -22 -2 -23 -102 -20 l-103 3 -3 43 -3 42 99 0 c95 0 100
-1 106 -22z m240 14 c2 -4 7 -24 11 -45 l7 -37 -100 0 c-56 0 -103 3 -105 8
-2 4 -7 24 -11 45 l-7 37 100 0 c55 0 102 -3 105 -8z m214 -4 c5 -7 13 -28 17
-45 l7 -33 -85 0 -85 0 -11 31 c-20 57 -18 59 68 59 51 0 82 -4 89 -12z
m-2712 -133 c3 -8 1 -30 -6 -50 l-12 -35 -90 0 -90 0 6 25 c19 76 18 75 106
75 61 0 82 -3 86 -15z m254 -12 c0 -73 -1 -73 -121 -73 -60 0 -109 2 -109 4 0
1 5 18 11 37 6 19 12 40 15 47 2 8 32 12 104 12 l100 0 0 -27z m251 -18 c-1
-22 -5 -43 -8 -47 -2 -5 -51 -8 -109 -8 l-105 0 7 38 c11 60 16 63 123 60 l96
-3 -4 -40z m254 -5 l0 -45 -107 -3 -108 -3 0 31 c0 65 10 71 118 68 l97 -3 0
-45z m255 0 l0 -50 -108 0 -108 0 4 38 c6 64 3 62 112 62 l100 0 0 -50z m258
-2 l3 -48 -110 0 -111 0 0 44 c0 26 5 46 13 50 6 2 55 4 107 3 l95 -2 3 -47z
m246 40 c3 -7 7 -30 10 -50 l5 -38 -110 0 -109 0 0 43 c0 24 3 47 7 50 13 13
193 8 197 -5z m260 -19 c14 -72 18 -70 -101 -67 l-108 3 -3 33 c-6 60 -2 62
106 62 l100 0 6 -31z m249 24 c3 -5 8 -27 12 -50 l7 -43 -110 0 -109 0 -6 42
c-3 23 -3 46 -1 50 7 10 201 11 207 1z m257 -19 c6 -14 10 -36 10 -50 0 -24 0
-24 -104 -24 l-103 0 -7 31 c-14 71 -16 69 94 69 99 0 101 0 110 -26z m248 9
c6 -10 13 -33 17 -50 l7 -33 -106 0 c-57 0 -107 3 -109 8 -3 4 -8 26 -12 50
l-7 42 101 0 c85 0 102 -3 109 -17z m220 5 c5 -7 15 -30 20 -51 l11 -38 -92 3
-92 3 -13 38 c-6 22 -10 43 -6 48 8 14 160 11 172 -3z m-1052 -345 c9 -32 25
-88 34 -125 l18 -68 -459 0 c-252 0 -459 3 -459 7 0 4 15 60 33 125 l32 118
392 0 392 0 17 -57z m1452 -272 c-7 -11 -23 -24 -35 -30 -17 -8 -568 -11
-1832 -11 l-1808 0 -27 21 c-14 11 -26 25 -26 30 0 5 728 9 1870 9 1845 0
1870 0 1858 -19z"/>
</g>
</svg>
